<mxfile host="app.diagrams.net" modified="2023-04-08T16:32:31.929Z" agent="Mozilla/5.0 (Windows NT 10.0; Win64; x64) AppleWebKit/537.36 (KHTML, like Gecko) Chrome/111.0.0.0 Safari/537.36 OPR/97.0.0.0" etag="ydml8yXMNmhLDt9F5Pj4" version="21.1.5" type="github">
  <diagram name="Page-1" id="c7488fd3-1785-93aa-aadb-54a6760d102a">
    <mxGraphModel dx="1915" dy="-413" grid="1" gridSize="10" guides="1" tooltips="1" connect="1" arrows="1" fold="1" page="1" pageScale="1" pageWidth="1100" pageHeight="850" background="none" math="0" shadow="0">
      <root>
        <mxCell id="0" />
        <mxCell id="1" parent="0" />
        <mxCell id="6LcynTsejMugb8SiGbde-1" value="" style="ellipse;whiteSpace=wrap;html=1;aspect=fixed;strokeColor=#000000;fillColor=#1A1A1A;" vertex="1" parent="1">
          <mxGeometry x="340" y="860" width="20" height="20" as="geometry" />
        </mxCell>
        <mxCell id="6LcynTsejMugb8SiGbde-2" value="" style="endArrow=classic;html=1;rounded=0;exitX=0.5;exitY=1;exitDx=0;exitDy=0;" edge="1" parent="1" source="6LcynTsejMugb8SiGbde-1">
          <mxGeometry width="50" height="50" relative="1" as="geometry">
            <mxPoint x="390" y="1080" as="sourcePoint" />
            <mxPoint x="350" y="910" as="targetPoint" />
          </mxGeometry>
        </mxCell>
        <mxCell id="6LcynTsejMugb8SiGbde-3" value="&lt;font style=&quot;font-size: 10px;&quot;&gt;Новое обращение&lt;/font&gt;" style="ellipse;whiteSpace=wrap;html=1;aspect=fixed;" vertex="1" parent="1">
          <mxGeometry x="320" y="910" width="60" height="60" as="geometry" />
        </mxCell>
        <mxCell id="6LcynTsejMugb8SiGbde-4" value="" style="endArrow=classic;html=1;rounded=0;exitX=0.5;exitY=1;exitDx=0;exitDy=0;entryX=0.5;entryY=0;entryDx=0;entryDy=0;" edge="1" parent="1" source="6LcynTsejMugb8SiGbde-3" target="6LcynTsejMugb8SiGbde-5">
          <mxGeometry width="50" height="50" relative="1" as="geometry">
            <mxPoint x="390" y="1080" as="sourcePoint" />
            <mxPoint x="350" y="1000" as="targetPoint" />
          </mxGeometry>
        </mxCell>
        <mxCell id="6LcynTsejMugb8SiGbde-5" value="Статус &lt;br&gt;new" style="ellipse;whiteSpace=wrap;html=1;aspect=fixed;" vertex="1" parent="1">
          <mxGeometry x="320" y="1010" width="60" height="60" as="geometry" />
        </mxCell>
        <mxCell id="6LcynTsejMugb8SiGbde-6" value="&lt;font style=&quot;font-size: 10px;&quot;&gt;Обращение зафиксировано&lt;/font&gt;" style="ellipse;whiteSpace=wrap;html=1;aspect=fixed;" vertex="1" parent="1">
          <mxGeometry x="310" y="1110" width="80" height="80" as="geometry" />
        </mxCell>
        <mxCell id="6LcynTsejMugb8SiGbde-7" value="" style="endArrow=classic;html=1;rounded=0;exitX=0.5;exitY=1;exitDx=0;exitDy=0;entryX=0.5;entryY=0;entryDx=0;entryDy=0;" edge="1" parent="1" source="6LcynTsejMugb8SiGbde-5" target="6LcynTsejMugb8SiGbde-6">
          <mxGeometry width="50" height="50" relative="1" as="geometry">
            <mxPoint x="390" y="1160" as="sourcePoint" />
            <mxPoint x="350" y="1060" as="targetPoint" />
          </mxGeometry>
        </mxCell>
        <mxCell id="6LcynTsejMugb8SiGbde-8" value="" style="endArrow=classic;html=1;rounded=0;entryX=0.5;entryY=0;entryDx=0;entryDy=0;" edge="1" parent="1" target="6LcynTsejMugb8SiGbde-9">
          <mxGeometry width="50" height="50" relative="1" as="geometry">
            <mxPoint x="353" y="1190" as="sourcePoint" />
            <mxPoint x="350" y="1180" as="targetPoint" />
            <Array as="points">
              <mxPoint x="353" y="1200" />
            </Array>
          </mxGeometry>
        </mxCell>
        <mxCell id="6LcynTsejMugb8SiGbde-9" value="Статус&lt;br&gt;&lt;span id=&quot;docs-internal-guid-f2826c90-7fff-e4af-18b2-5f5f77b8a1de&quot;&gt;&lt;/span&gt;&lt;span id=&quot;docs-internal-guid-f2826c90-7fff-e4af-18b2-5f5f77b8a1de&quot;&gt;&lt;/span&gt;Processing" style="ellipse;whiteSpace=wrap;html=1;aspect=fixed;" vertex="1" parent="1">
          <mxGeometry x="317.5" y="1230" width="70" height="70" as="geometry" />
        </mxCell>
        <mxCell id="6LcynTsejMugb8SiGbde-10" value="In Work" style="ellipse;whiteSpace=wrap;html=1;aspect=fixed;" vertex="1" parent="1">
          <mxGeometry x="315" y="1350" width="75" height="75" as="geometry" />
        </mxCell>
        <mxCell id="6LcynTsejMugb8SiGbde-11" value="" style="endArrow=classic;html=1;rounded=0;entryX=0.5;entryY=0;entryDx=0;entryDy=0;exitX=0.5;exitY=1;exitDx=0;exitDy=0;" edge="1" parent="1" source="6LcynTsejMugb8SiGbde-9" target="6LcynTsejMugb8SiGbde-10">
          <mxGeometry width="50" height="50" relative="1" as="geometry">
            <mxPoint x="353" y="1310" as="sourcePoint" />
            <mxPoint x="440" y="1300" as="targetPoint" />
          </mxGeometry>
        </mxCell>
        <mxCell id="6LcynTsejMugb8SiGbde-15" value="" style="edgeStyle=elbowEdgeStyle;elbow=horizontal;endArrow=classic;html=1;curved=0;rounded=0;endSize=8;startSize=8;" edge="1" parent="1">
          <mxGeometry width="50" height="50" relative="1" as="geometry">
            <mxPoint x="310" y="1380" as="sourcePoint" />
            <mxPoint x="205" y="1410" as="targetPoint" />
            <Array as="points">
              <mxPoint x="205" y="1490" />
            </Array>
          </mxGeometry>
        </mxCell>
        <mxCell id="6LcynTsejMugb8SiGbde-16" value="&lt;font style=&quot;font-size: 10px;&quot;&gt;ready for test&lt;/font&gt;" style="ellipse;whiteSpace=wrap;html=1;aspect=fixed;" vertex="1" parent="1">
          <mxGeometry x="180" y="1410" width="50" height="50" as="geometry" />
        </mxCell>
        <mxCell id="6LcynTsejMugb8SiGbde-23" style="edgeStyle=orthogonalEdgeStyle;rounded=0;orthogonalLoop=1;jettySize=auto;html=1;" edge="1" parent="1" source="6LcynTsejMugb8SiGbde-17" target="6LcynTsejMugb8SiGbde-25">
          <mxGeometry relative="1" as="geometry">
            <mxPoint x="280" y="1520" as="targetPoint" />
            <Array as="points">
              <mxPoint x="260" y="1505" />
            </Array>
          </mxGeometry>
        </mxCell>
        <mxCell id="6LcynTsejMugb8SiGbde-17" value="testing" style="ellipse;whiteSpace=wrap;html=1;aspect=fixed;" vertex="1" parent="1">
          <mxGeometry x="180" y="1480" width="50" height="50" as="geometry" />
        </mxCell>
        <mxCell id="6LcynTsejMugb8SiGbde-24" value="" style="edgeStyle=segmentEdgeStyle;endArrow=classic;html=1;curved=0;rounded=0;endSize=8;startSize=8;exitX=0;exitY=0.5;exitDx=0;exitDy=0;entryX=0.333;entryY=0;entryDx=0;entryDy=0;entryPerimeter=0;" edge="1" parent="1" source="6LcynTsejMugb8SiGbde-17" target="6LcynTsejMugb8SiGbde-26">
          <mxGeometry width="50" height="50" relative="1" as="geometry">
            <mxPoint x="50" y="1520" as="sourcePoint" />
            <mxPoint x="150" y="1510" as="targetPoint" />
            <Array as="points">
              <mxPoint x="180" y="1500" />
              <mxPoint x="140" y="1500" />
              <mxPoint x="140" y="1580" />
            </Array>
          </mxGeometry>
        </mxCell>
        <mxCell id="6LcynTsejMugb8SiGbde-25" value="Ready for&amp;nbsp;&lt;br&gt;release" style="ellipse;whiteSpace=wrap;html=1;aspect=fixed;" vertex="1" parent="1">
          <mxGeometry x="230" y="1580" width="60" height="60" as="geometry" />
        </mxCell>
        <mxCell id="6LcynTsejMugb8SiGbde-26" value="Need&amp;nbsp;&lt;br&gt;fixing" style="ellipse;whiteSpace=wrap;html=1;aspect=fixed;" vertex="1" parent="1">
          <mxGeometry x="130" y="1580" width="60" height="60" as="geometry" />
        </mxCell>
        <mxCell id="6LcynTsejMugb8SiGbde-28" value="" style="edgeStyle=elbowEdgeStyle;elbow=horizontal;endArrow=classic;html=1;curved=0;rounded=0;endSize=8;startSize=8;exitX=0;exitY=0.5;exitDx=0;exitDy=0;" edge="1" parent="1" source="6LcynTsejMugb8SiGbde-26">
          <mxGeometry width="50" height="50" relative="1" as="geometry">
            <mxPoint x="105" y="1610" as="sourcePoint" />
            <mxPoint x="170" y="1430" as="targetPoint" />
            <Array as="points">
              <mxPoint x="80" y="1460" />
              <mxPoint x="100" y="1520" />
              <mxPoint x="85" y="1530" />
            </Array>
          </mxGeometry>
        </mxCell>
        <mxCell id="6LcynTsejMugb8SiGbde-29" value="problem is solved" style="ellipse;whiteSpace=wrap;html=1;aspect=fixed;" vertex="1" parent="1">
          <mxGeometry x="320" y="1570" width="70" height="70" as="geometry" />
        </mxCell>
        <mxCell id="6LcynTsejMugb8SiGbde-33" value="" style="endArrow=classic;html=1;rounded=0;exitX=1;exitY=0.5;exitDx=0;exitDy=0;entryX=0;entryY=0.571;entryDx=0;entryDy=0;entryPerimeter=0;" edge="1" parent="1" source="6LcynTsejMugb8SiGbde-25" target="6LcynTsejMugb8SiGbde-29">
          <mxGeometry width="50" height="50" relative="1" as="geometry">
            <mxPoint x="360" y="1450" as="sourcePoint" />
            <mxPoint x="410" y="1400" as="targetPoint" />
          </mxGeometry>
        </mxCell>
        <mxCell id="6LcynTsejMugb8SiGbde-36" value="" style="edgeStyle=elbowEdgeStyle;elbow=vertical;endArrow=classic;html=1;curved=0;rounded=0;endSize=8;startSize=8;exitX=1;exitY=1;exitDx=0;exitDy=0;" edge="1" parent="1" source="6LcynTsejMugb8SiGbde-37">
          <mxGeometry width="50" height="50" relative="1" as="geometry">
            <mxPoint x="470" y="1300" as="sourcePoint" />
            <mxPoint x="530" y="1570" as="targetPoint" />
            <Array as="points">
              <mxPoint x="500" y="1390" />
              <mxPoint x="540" y="1570" />
              <mxPoint x="530" y="1310" />
            </Array>
          </mxGeometry>
        </mxCell>
        <mxCell id="6LcynTsejMugb8SiGbde-37" value="" style="shape=partialRectangle;whiteSpace=wrap;html=1;bottom=1;right=1;left=1;top=0;fillColor=none;routingCenterX=-0.5;direction=north;" vertex="1" parent="1">
          <mxGeometry x="400" y="1390" width="70" height="220" as="geometry" />
        </mxCell>
        <mxCell id="6LcynTsejMugb8SiGbde-38" value="Canceled" style="ellipse;whiteSpace=wrap;html=1;aspect=fixed;" vertex="1" parent="1">
          <mxGeometry x="500" y="1570" width="70" height="70" as="geometry" />
        </mxCell>
        <mxCell id="6LcynTsejMugb8SiGbde-40" value="" style="endArrow=classic;html=1;rounded=0;exitX=0.5;exitY=1;exitDx=0;exitDy=0;entryX=0.5;entryY=0;entryDx=0;entryDy=0;" edge="1" parent="1" source="6LcynTsejMugb8SiGbde-16" target="6LcynTsejMugb8SiGbde-17">
          <mxGeometry width="50" height="50" relative="1" as="geometry">
            <mxPoint x="360" y="1530" as="sourcePoint" />
            <mxPoint x="410" y="1480" as="targetPoint" />
          </mxGeometry>
        </mxCell>
        <mxCell id="6LcynTsejMugb8SiGbde-45" value="" style="endArrow=classic;html=1;rounded=0;entryX=0.5;entryY=0;entryDx=0;entryDy=0;" edge="1" parent="1" target="6LcynTsejMugb8SiGbde-29">
          <mxGeometry width="50" height="50" relative="1" as="geometry">
            <mxPoint x="355" y="1430" as="sourcePoint" />
            <mxPoint x="410" y="1480" as="targetPoint" />
          </mxGeometry>
        </mxCell>
        <mxCell id="6LcynTsejMugb8SiGbde-46" value="&lt;font style=&quot;font-size: 10px;&quot;&gt;&amp;nbsp;Пользователь сразу после обращения&lt;br&gt;&amp;nbsp;в поддержку получает сообщение,&lt;br&gt;&amp;nbsp;что его обращение зафиксировано.&lt;/font&gt;" style="text;html=1;align=center;verticalAlign=middle;resizable=0;points=[];autosize=1;strokeColor=none;fillColor=none;" vertex="1" parent="1">
          <mxGeometry x="360" y="1050" width="200" height="60" as="geometry" />
        </mxCell>
        <mxCell id="6LcynTsejMugb8SiGbde-48" value="&lt;font style=&quot;font-size: 10px;&quot;&gt;созданное пользователем &lt;br&gt;должно иметь статус “New”&lt;/font&gt;" style="text;html=1;align=center;verticalAlign=middle;resizable=0;points=[];autosize=1;strokeColor=none;fillColor=none;" vertex="1" parent="1">
          <mxGeometry x="370" y="965" width="150" height="40" as="geometry" />
        </mxCell>
        <mxCell id="6LcynTsejMugb8SiGbde-51" value="&lt;font style=&quot;font-size: 10px;&quot;&gt;обращение попало в баг-трекер &lt;br&gt;и его прочитал специалист первой линии поддержки&lt;/font&gt;" style="text;html=1;align=center;verticalAlign=middle;resizable=0;points=[];autosize=1;strokeColor=none;fillColor=none;" vertex="1" parent="1">
          <mxGeometry x="360" y="1190" width="270" height="40" as="geometry" />
        </mxCell>
        <mxCell id="6LcynTsejMugb8SiGbde-52" value="&lt;font style=&quot;font-size: 10px;&quot;&gt;заявку специалисты поддержки передают в работу&lt;/font&gt;" style="text;html=1;align=center;verticalAlign=middle;resizable=0;points=[];autosize=1;strokeColor=none;fillColor=none;" vertex="1" parent="1">
          <mxGeometry x="375" y="1290" width="260" height="30" as="geometry" />
        </mxCell>
        <mxCell id="6LcynTsejMugb8SiGbde-55" value="&lt;font style=&quot;font-size: 10px;&quot;&gt;&amp;nbsp;отправляется оповещение, что обращение принято в работу&lt;/font&gt;" style="text;html=1;align=center;verticalAlign=middle;resizable=0;points=[];autosize=1;strokeColor=none;fillColor=none;" vertex="1" parent="1">
          <mxGeometry x="350" y="1310" width="310" height="30" as="geometry" />
        </mxCell>
        <mxCell id="6LcynTsejMugb8SiGbde-56" value="&lt;span id=&quot;docs-internal-guid-1c218b30-7fff-d9bd-b93e-c983e3a879c0&quot;&gt;&lt;/span&gt;" style="text;html=1;align=center;verticalAlign=middle;resizable=0;points=[];autosize=1;strokeColor=none;fillColor=none;" vertex="1" parent="1">
          <mxGeometry x="110" y="1445" width="20" height="10" as="geometry" />
        </mxCell>
        <mxCell id="6LcynTsejMugb8SiGbde-59" value="&lt;span id=&quot;docs-internal-guid-1c218b30-7fff-d9bd-b93e-c983e3a879c0&quot;&gt;&lt;/span&gt;" style="text;html=1;align=center;verticalAlign=middle;resizable=0;points=[];autosize=1;strokeColor=none;fillColor=none;" vertex="1" parent="1">
          <mxGeometry x="110" y="1535" width="20" height="10" as="geometry" />
        </mxCell>
        <mxCell id="6LcynTsejMugb8SiGbde-61" value="&lt;font style=&quot;&quot;&gt;&lt;font style=&quot;font-size: 9px;&quot;&gt;промежуточные&lt;br&gt;&amp;nbsp;статусы(изменения в этих&lt;br&gt;&amp;nbsp;статусах пользователь &lt;br&gt;не видит)&lt;br&gt;&lt;/font&gt;&lt;br&gt;&lt;/font&gt;" style="text;html=1;align=center;verticalAlign=middle;resizable=0;points=[];autosize=1;strokeColor=none;fillColor=none;rotation=0;" vertex="1" parent="1">
          <mxGeometry x="210" y="1380" width="130" height="90" as="geometry" />
        </mxCell>
        <mxCell id="6LcynTsejMugb8SiGbde-62" value="&lt;font style=&quot;font-size: 10px;&quot;&gt;успешная проверка&lt;/font&gt;" style="text;html=1;align=center;verticalAlign=middle;resizable=0;points=[];autosize=1;strokeColor=none;fillColor=none;" vertex="1" parent="1">
          <mxGeometry x="225" y="1480" width="110" height="30" as="geometry" />
        </mxCell>
        <mxCell id="6LcynTsejMugb8SiGbde-64" value="&lt;font style=&quot;font-size: 10px;&quot;&gt;проблема осталась&lt;/font&gt;" style="text;html=1;align=center;verticalAlign=middle;resizable=0;points=[];autosize=1;strokeColor=none;fillColor=none;" vertex="1" parent="1">
          <mxGeometry x="80" y="1480" width="110" height="30" as="geometry" />
        </mxCell>
        <mxCell id="6LcynTsejMugb8SiGbde-68" value="&lt;font style=&quot;font-size: 10px;&quot;&gt;тикет &lt;br&gt;возвращается&lt;br&gt;&amp;nbsp;в&lt;br&gt;разработку&lt;/font&gt;" style="text;html=1;align=center;verticalAlign=middle;resizable=0;points=[];autosize=1;strokeColor=none;fillColor=none;" vertex="1" parent="1">
          <mxGeometry x="-5" y="1475" width="90" height="70" as="geometry" />
        </mxCell>
        <mxCell id="6LcynTsejMugb8SiGbde-69" value="&lt;font style=&quot;font-size: 10px;&quot;&gt;Пользователь&lt;br&gt;&amp;nbsp;получает &lt;br&gt;уведомление о том, &lt;br&gt;что проблема решена&lt;/font&gt;" style="text;html=1;align=center;verticalAlign=middle;resizable=0;points=[];autosize=1;strokeColor=none;fillColor=none;" vertex="1" parent="1">
          <mxGeometry x="360" y="1520" width="130" height="70" as="geometry" />
        </mxCell>
        <mxCell id="6LcynTsejMugb8SiGbde-70" value="&lt;font style=&quot;font-size: 10px;&quot;&gt;&amp;nbsp;пользователь не разобрался с интерфейсом&lt;br&gt;&amp;nbsp;и обратился в поддержку за помощью&lt;/font&gt;" style="text;html=1;align=center;verticalAlign=middle;resizable=0;points=[];autosize=1;strokeColor=none;fillColor=none;" vertex="1" parent="1">
          <mxGeometry x="370" y="1350" width="230" height="40" as="geometry" />
        </mxCell>
        <mxCell id="6LcynTsejMugb8SiGbde-71" value="если проблема решена" style="text;html=1;strokeColor=none;fillColor=none;align=center;verticalAlign=middle;whiteSpace=wrap;rounded=0;" vertex="1" parent="1">
          <mxGeometry x="400" y="1420" width="60" height="30" as="geometry" />
        </mxCell>
        <mxCell id="6LcynTsejMugb8SiGbde-73" value="если проблема не решена" style="text;html=1;strokeColor=none;fillColor=none;align=center;verticalAlign=middle;whiteSpace=wrap;rounded=0;" vertex="1" parent="1">
          <mxGeometry x="470" y="1420" width="60" height="30" as="geometry" />
        </mxCell>
      </root>
    </mxGraphModel>
  </diagram>
</mxfile>
